<svg width="150" height="100" viewBox="0 0 150 100" fill="none" xmlns="http://www.w3.org/2000/svg">
<path d="M47.8706 38.1814C47.6054 38.1745 47.3422 38.1319 47.0876 38.0548C46.7818 37.949 46.4993 37.7818 46.2562 37.5627C46.0131 37.3436 45.8142 37.077 45.6709 36.7781C45.5277 36.4792 45.4429 36.154 45.4214 35.8211C45.4 35.4882 45.4423 35.1542 45.546 34.8383C45.7662 34.2051 50.7091 19.4143 65.2686 17.844C65.59 17.8091 65.9148 17.84 66.2246 17.935C66.5344 18.03 66.8231 18.1873 67.0742 18.3978C67.3252 18.6083 67.5338 18.8679 67.688 19.1618C67.8421 19.4557 67.9388 19.7782 67.9725 20.1107C68.0063 20.4433 67.9764 20.7796 67.8846 21.1002C67.7928 21.4208 67.6409 21.7196 67.4375 21.9795C67.2342 22.2394 66.9833 22.4553 66.6994 22.6148C66.4154 22.7743 66.1038 22.8744 65.7825 22.9094C54.3062 24.1504 50.2442 36.3579 50.1952 36.4845C50.0269 36.9828 49.7124 37.4142 49.2956 37.7185C48.8788 38.0227 48.3806 38.1846 47.8706 38.1814Z" fill="#05BFDB"/>
<path d="M18.1232 66.8669C17.7393 66.8717 17.3605 66.7759 17.022 66.5884C15.7969 65.9784 14.626 65.258 13.5228 64.4356C13.0004 64.0359 12.6528 63.4378 12.5564 62.7729C12.46 62.1079 12.6228 61.4306 13.009 60.8898C13.3951 60.3491 13.973 59.9893 14.6154 59.8896C15.2579 59.7898 15.9123 59.9583 16.4348 60.358C17.3247 60.9986 18.2568 61.5741 19.2243 62.0802C19.712 62.3388 20.1017 62.7593 20.331 63.2743C20.5604 63.7894 20.616 64.3692 20.4891 64.9209C20.3622 65.4726 20.06 65.9643 19.6311 66.3171C19.2021 66.67 18.6711 66.8636 18.1232 66.8669ZM66.3042 76.795C63.8573 76.795 61.7039 76.5671 59.5016 76.3898C59.1803 76.3649 58.8668 76.2747 58.5792 76.1243C58.2915 75.974 58.0353 75.7665 57.8251 75.5137C57.4006 75.0031 57.1895 74.3389 57.2382 73.6672C57.2868 72.9955 57.5913 72.3713 58.0846 71.9319C58.578 71.4926 59.2197 71.2741 59.8687 71.3245C61.9976 71.4764 64.2243 71.6031 66.5 71.7044C67.149 71.7044 67.7714 71.9712 68.2303 72.4462C68.6892 72.9211 68.947 73.5653 68.947 74.237C68.947 74.9087 68.6892 75.5529 68.2303 76.0279C67.7714 76.5029 67.149 76.7697 66.5 76.7697L66.3042 76.795ZM84.2896 76.795C83.6406 76.795 83.0182 76.5282 82.5593 76.0532C82.1004 75.5783 81.8426 74.9341 81.8426 74.2624C81.8426 73.5907 82.1004 72.9465 82.5593 72.4715C83.0182 71.9965 83.6406 71.7297 84.2896 71.7297C86.5652 71.7297 88.792 71.5017 90.9209 71.3498C91.2424 71.3221 91.5661 71.3605 91.8733 71.4628C92.1804 71.565 92.465 71.7292 92.7106 71.9458C92.9562 72.1623 93.158 72.427 93.3044 72.7246C93.4508 73.0222 93.5389 73.3469 93.5636 73.6798C93.5869 74.0126 93.5465 74.3469 93.4446 74.6634C93.3427 74.9799 93.1814 75.2725 92.9699 75.5243C92.7585 75.7762 92.501 75.9823 92.2123 76.1308C91.9237 76.2793 91.6095 76.3673 91.2879 76.3898C89.0856 76.5671 86.8344 76.6937 84.4853 76.795H84.2896ZM108.759 74.2624C108.11 74.3228 107.465 74.114 106.965 73.6817C106.464 73.2495 106.151 72.6293 106.092 71.9576C106.034 71.2859 106.236 70.6177 106.653 70.1C107.071 69.5823 107.67 69.2575 108.319 69.197C110.546 68.7918 112.723 68.3359 114.803 67.8294C115.452 67.6782 116.133 67.8001 116.695 68.1682C117.257 68.5363 117.655 69.1205 117.801 69.7922C117.947 70.4639 117.829 71.1681 117.474 71.75C117.118 72.3318 116.554 72.7436 115.905 72.8947C113.751 73.4013 111.5 73.8825 109.175 74.313L108.759 74.2624ZM41.6631 74.2624H41.2227C38.9225 73.8318 36.6468 73.3506 34.4935 72.8441C33.8445 72.6929 33.2801 72.2812 32.9245 71.6993C32.5688 71.1175 32.451 70.4132 32.5971 69.7415C32.7431 69.0698 33.1409 68.4857 33.7031 68.1176C34.2652 67.7495 34.9456 67.6276 35.5946 67.7787C37.6746 68.2599 39.8524 68.7158 42.0791 69.1464C42.7281 69.2035 43.3286 69.525 43.7485 70.0404C44.1684 70.5557 44.3733 71.2226 44.3181 71.8943C44.2629 72.566 43.9522 73.1875 43.4543 73.6221C42.9564 74.0567 42.3121 74.2688 41.6631 74.2117V74.2624ZM132.495 66.8669C131.947 66.8636 131.416 66.67 130.987 66.3171C130.558 65.9643 130.256 65.4726 130.129 64.9209C130.002 64.3692 130.058 63.7894 130.287 63.2743C130.517 62.7593 130.906 62.3388 131.394 62.0802C132.365 61.5799 133.297 61.0042 134.184 60.358C134.442 60.1601 134.736 60.0169 135.048 59.9365C135.36 59.8561 135.685 59.8402 136.003 59.8896C136.321 59.9389 136.627 60.0527 136.902 60.2243C137.178 60.396 137.418 60.6221 137.609 60.8898C137.8 61.1576 137.939 61.4617 138.017 61.7848C138.094 62.1078 138.11 62.4436 138.062 62.7729C138.014 63.1021 137.904 63.4184 137.738 63.7037C137.573 63.989 137.354 64.2377 137.095 64.4356C135.987 65.2489 134.816 65.9688 133.596 66.5884C133.254 66.7641 132.878 66.8592 132.495 66.8669ZM75.3091 64.8915C58.8899 64.8915 43.8409 62.7134 34.053 58.9143C33.5886 58.7347 33.1878 58.4134 32.9037 57.9927C32.6197 57.5721 32.4658 57.0721 32.4625 56.559V45.8457C32.2682 39.8992 33.2321 33.9731 35.2966 28.4201C37.3612 22.8672 40.4843 17.8011 44.4799 13.5234C48.4755 9.24566 53.2619 5.84388 58.5541 3.52059C63.8463 1.19729 69.5361 0 75.2847 0C81.0332 0 86.723 1.19729 92.0153 3.52059C97.3075 5.84388 102.094 9.24566 106.089 13.5234C110.085 17.8011 113.208 22.8672 115.273 28.4201C117.337 33.9731 118.301 39.8992 118.107 45.8457V56.5336C118.127 57.1021 117.962 57.6611 117.638 58.1205C117.314 58.5799 116.85 58.9131 116.321 59.0663C106.777 62.6627 91.7284 64.8915 75.3091 64.8915ZM37.3564 54.7608C46.5571 57.9519 60.5538 59.8261 75.3091 59.8261C90.0644 59.8261 104.086 57.9519 113.286 54.7608V45.8711C112.933 35.7036 108.783 26.0745 101.709 19.0107C94.6342 11.947 85.1878 7.99961 75.3581 7.99961C65.5283 7.99961 56.082 11.947 49.0076 19.0107C41.9333 26.0745 37.7828 35.7036 37.4299 45.8711L37.3564 54.7608Z" fill="#05BFDB"/>
<path d="M75 99.9999C38.6378 99.9999 0 90.8822 0 73.9893C0 66.0367 8.68678 59.2238 25.106 54.3104C25.6793 54.2399 26.2581 54.3815 26.7402 54.71C27.2224 55.0386 27.5768 55.533 27.7408 56.1059C27.9047 56.6787 27.8678 57.2931 27.6364 57.8405C27.405 58.3879 26.9941 58.833 26.4763 59.0971C12.969 63.1494 4.89396 68.696 4.89396 73.9133C4.89396 83.816 33.6949 94.8585 75 94.8585C116.305 94.8585 145.106 83.816 145.106 73.9133C145.106 68.4427 136.028 62.5416 121.444 58.4893C121.124 58.4122 120.822 58.2692 120.557 58.0689C120.292 57.8686 120.068 57.6151 119.899 57.3234C119.731 57.0318 119.62 56.708 119.575 56.3713C119.53 56.0346 119.551 55.692 119.636 55.3638C119.722 55.0356 119.87 54.7285 120.073 54.4609C120.275 54.1934 120.528 53.9707 120.815 53.8062C121.102 53.6418 121.419 53.5388 121.745 53.5036C122.072 53.4684 122.402 53.5016 122.716 53.6012C140.31 58.4893 150 65.7074 150 73.8626C150 90.8822 111.362 99.9999 75 99.9999Z" fill="#05BFDB"/>
</svg>
