<svg width="35" height="35" viewBox="0 0 35 35" fill="none" xmlns="http://www.w3.org/2000/svg">
<path d="M6.99159 13.0938V8.72922C6.99159 7.18579 7.61283 5.70559 8.71864 4.61422C9.82445 3.52286 11.3242 2.90974 12.8881 2.90974C14.452 2.90974 15.9518 3.52286 17.0576 4.61422C18.1634 5.70559 18.7846 7.18579 18.7846 8.72922V13.0938H21.7329V8.72922C21.7329 3.90996 17.7711 0 12.8881 0C8.00505 0 4.04333 3.90996 4.04333 8.72922V13.0938H6.99159ZM17.3105 26.1876H14.3622V23.2779L32.0518 5.81948L35 8.72922L17.3105 26.1876Z" fill="#00FFCA"/>
<path d="M19.1637 27.7257H13.2671V21.9062L20.6378 14.6318H2.94826C2.16704 14.6341 1.41848 14.9414 0.866075 15.4866C0.313669 16.0318 0.00230897 16.7706 0 17.5416V32.0903C0.00230897 32.8613 0.313669 33.6001 0.866075 34.1452C1.41848 34.6904 2.16704 34.9977 2.94826 35H23.586C24.3673 34.9977 25.1158 34.6904 25.6682 34.1452C26.2206 33.6001 26.532 32.8613 26.5343 32.0903V20.4513L19.1637 27.7257Z" fill="#00FFCA"/>
</svg>
