<svg width="35" height="35" viewBox="0 0 35 35" fill="none" xmlns="http://www.w3.org/2000/svg">
<path d="M9.625 19.6875C10.4293 19.6875 11.2258 19.4895 11.9689 19.1047C12.7121 18.7199 13.3873 18.156 13.956 17.445C14.5248 16.7341 14.976 15.8901 15.2838 14.9612C15.5916 14.0323 15.75 13.0367 15.75 12.0312C15.75 11.0258 15.5916 10.0302 15.2838 9.10133C14.976 8.17243 14.5248 7.32841 13.956 6.61746C13.3873 5.90652 12.7121 5.34256 11.9689 4.9578C11.2258 4.57303 10.4293 4.375 9.625 4.375C8.82065 4.375 8.02418 4.57303 7.28106 4.9578C6.53794 5.34256 5.86273 5.90652 5.29397 6.61746C4.72521 7.32841 4.27405 8.17243 3.96624 9.10133C3.65843 10.0302 3.5 11.0258 3.5 12.0312C3.5 13.0367 3.65843 14.0323 3.96624 14.9612C4.27405 15.8901 4.72521 16.7341 5.29397 17.445C5.86273 18.156 6.53794 18.7199 7.28106 19.1047C8.02418 19.4895 8.82065 19.6875 9.625 19.6875ZM19.25 12.0312C19.25 17.9307 15.8539 22.8389 11.375 23.8643V26.25H13.125C14.093 26.25 14.875 27.2275 14.875 28.4375C14.875 29.6475 14.093 30.625 13.125 30.625H11.375V32.8125C11.375 34.0225 10.593 35 9.625 35C8.65703 35 7.875 34.0225 7.875 32.8125V30.625H6.125C5.15703 30.625 4.375 29.6475 4.375 28.4375C4.375 27.2275 5.15703 26.25 6.125 26.25H7.875V23.8643C3.39609 22.8389 0 17.9307 0 12.0312C0 5.38672 4.30938 0 9.625 0C14.9406 0 19.25 5.38672 19.25 12.0312ZM14.8695 24.6504C15.925 23.96 16.8875 23.0713 17.7188 22.0254C18.8125 23.29 20.2727 24.0625 21.8805 24.0625C25.2656 24.0625 28.0055 20.6377 28.0055 16.4062C28.0055 12.1748 25.2656 8.75 21.8805 8.75C21.4867 8.75 21.0984 8.79785 20.7266 8.88672C20.4586 7.41699 20.0156 6.03613 19.4141 4.77148C20.1961 4.51172 21.0219 4.375 21.875 4.375C23.8984 4.375 25.7797 5.1543 27.3328 6.49414L28.4594 5.08594L26.6328 2.80273C26.2555 2.33105 26.1461 1.62695 26.3484 1.01172C26.5508 0.396484 27.032 0 27.5625 0H33.6875C34.4148 0 35 0.731445 35 1.64062V9.29688C35 9.95996 34.6828 10.5615 34.1906 10.8145C33.6984 11.0674 33.1352 10.9307 32.7578 10.459L30.9312 8.17578L29.8047 9.58398C30.8711 11.5254 31.5 13.8701 31.5 16.4062C31.5 23.0508 27.1906 28.4375 21.875 28.4375C19.1133 28.4375 16.625 26.9814 14.8695 24.6504Z" fill="#00FFCA"/>
</svg>
