<svg width="35" height="35" viewBox="0 0 35 35" fill="none" xmlns="http://www.w3.org/2000/svg">
<mask id="mask0_287_19" style="mask-type:luminance" maskUnits="userSpaceOnUse" x="0" y="0" width="35" height="35">
<path d="M34.8258 0H0V35H34.8258V0Z" fill="white"/>
</mask>
<g mask="url(#mask0_287_19)">
<path d="M2.37449 35H7.91496V16.9697L0 9.01514V31.8182C0 33.5788 1.06456 35 2.37449 35Z" fill="#4285F4"/>
<path d="M26.9111 35H32.4516C33.7656 35 34.8261 33.5734 34.8261 31.8182V9.01514L26.9111 16.9697" fill="#34A853"/>
<path d="M26.9111 3.18181V16.9697L34.8261 9.01515V4.77273C34.8261 0.837872 31.4742 -1.40531 29.1274 0.954537" fill="#FBBC04"/>
<path d="M7.91504 16.9697V3.18188L17.413 12.7273L26.9109 3.18188V16.9697L17.413 26.5152" fill="#EA4335"/>
<path d="M0 4.77273V9.01515L7.91496 16.9697V3.18181L5.69878 0.954537C3.34804 -1.40531 0 0.837872 0 4.77273Z" fill="#C5221F"/>
</g>
</svg>
