<svg width="100" height="100" viewBox="0 0 100 100" fill="none" xmlns="http://www.w3.org/2000/svg">
<path d="M57.6833 4.39758C56.4071 1.74117 53.3598 0 50 0C46.6402 0 43.5929 1.74117 42.3167 4.39758L11.0624 68.6871L0.644311 90.1169C-1.12676 93.7555 0.878718 97.9298 5.12409 99.4478C9.36946 100.966 14.2399 99.2469 16.011 95.6083L24.2934 78.576H75.7066L83.989 95.6083C85.7601 99.2469 90.6305 100.966 94.8759 99.4478C99.1213 97.9298 101.127 93.7555 99.3557 90.1169L88.9376 68.6871L57.6833 4.39758ZM68.7526 64.2895H31.2474L50 25.7158L68.7526 64.2895Z" fill="#05BFDB"/>
</svg>
