<svg width="35" height="35" viewBox="0 0 35 35" fill="none" xmlns="http://www.w3.org/2000/svg">
<path id="Vector" d="M11.25 9.84375V13.125H23.75V9.84375C23.75 6.82227 20.9531 4.375 17.5 4.375C14.0469 4.375 11.25 6.82227 11.25 9.84375ZM6.25 13.125V9.84375C6.25 4.40918 11.2891 0 17.5 0C23.7109 0 28.75 4.40918 28.75 9.84375V13.125H30C32.7578 13.125 35 15.0869 35 17.5V30.625C35 33.0381 32.7578 35 30 35H5C2.24219 35 0 33.0381 0 30.625V17.5C0 15.0869 2.24219 13.125 5 13.125H6.25Z" fill="#00FFCA"/>
</svg>
