<svg width="35" height="35" viewBox="0 0 35 35" fill="none" xmlns="http://www.w3.org/2000/svg">
<path d="M23.75 8.75C23.75 7.2996 23.0915 5.9086 21.9194 4.88301C20.7473 3.85742 19.1576 3.28125 17.5 3.28125C15.8424 3.28125 14.2527 3.85742 13.0806 4.88301C11.9085 5.9086 11.25 7.2996 11.25 8.75C11.25 10.2004 11.9085 11.5914 13.0806 12.617C14.2527 13.6426 15.8424 14.2187 17.5 14.2188C19.1576 14.2187 20.7473 13.6426 21.9194 12.617C23.0915 11.5914 23.75 10.2004 23.75 8.75ZM7.5 8.75C7.5 6.42936 8.55357 4.20376 10.4289 2.56282C12.3043 0.921872 14.8478 0 17.5 0C20.1522 0 22.6957 0.921872 24.5711 2.56282C26.4464 4.20376 27.5 6.42936 27.5 8.75C27.5 11.0706 26.4464 13.2962 24.5711 14.9372C22.6957 16.5781 20.1522 17.5 17.5 17.5C14.8478 17.5 12.3043 16.5781 10.4289 14.9372C8.55357 13.2962 7.5 11.0706 7.5 8.75ZM3.85156 31.7188H31.1484C30.4531 27.3916 26.2031 24.0625 21.0703 24.0625H13.9297C8.79688 24.0625 4.54688 27.3916 3.85156 31.7188ZM0 32.9697C0 26.2363 6.23438 20.7812 13.9297 20.7812H21.0703C28.7656 20.7812 35 26.2363 35 32.9697C35 34.0908 33.9609 35 32.6797 35H2.32031C1.03906 35 0 34.0908 0 32.9697Z" fill="#00FFCA"/>
</svg>
